<svg width="201" height="135" viewBox="0 0 201 135" fill="none" xmlns="http://www.w3.org/2000/svg">
<g clip-path="url(#clip0_653_2621)">
<path fill-rule="evenodd" clip-rule="evenodd" d="M142.641 132.032C124.946 132.49 59.6115 136.401 46.8067 133.302C46.8067 133.302 9.8542 128.984 1.43528 90.0706C-10.3109 22.2003 91.674 -1.57469 133.92 0.203352C133.92 0.203352 185.341 -1.11748 198.398 50.9029C208.228 94.7951 182.568 127.46 142.641 132.032Z" fill="#B5B5B5"/>
<path fill-rule="evenodd" clip-rule="evenodd" d="M59.6627 70.0164C58.604 73.1661 55.2768 73.9281 51.3446 73.9281C46.6058 73.8773 42.6232 72.9121 42.6736 67.6796V66.9175C42.6232 61.685 46.6058 60.7706 51.3446 60.669C55.2768 60.669 58.604 61.431 59.6627 64.5807H71.5097C70.7535 53.8108 61.9817 50.6104 51.3446 50.5596C40.2538 50.6104 31.0787 54.0649 31.1291 66.1047V68.4416C31.0787 80.5323 40.2538 84.0375 51.3446 84.0375C61.9817 84.0375 70.7535 80.7863 71.5097 70.0164H59.6627ZM74.9377 83.3263H86.4822V66.2571L98.0267 83.3263H103.824L115.369 66.2571V83.3263H126.913V51.3724H112.495L100.9 67.324L89.3558 51.3724H74.9377V83.3263ZM156.203 83.3263V61.5326H169.915V51.4232H130.896V61.5326H144.658V83.3263H156.203Z" fill="#FEFEFE"/>
</g>
<defs>
<clipPath id="clip0_653_2621">
<rect width="200" height="134.375" fill="white" transform="translate(0.5 0.111328)"/>
</clipPath>
</defs>
</svg>
