<svg width="200" height="135" viewBox="0 0 200 135" fill="none" xmlns="http://www.w3.org/2000/svg">
<g clip-path="url(#clip0_653_2002)">
<path fill-rule="evenodd" clip-rule="evenodd" d="M4.29126 42.1141C4.29126 42.1141 11.6847 5.4027 77.4963 0.501433C118.494 -2.95828 194.808 10.8165 199.663 62.7763C204.74 116.85 151.304 127.71 113.226 132.131C49.9849 139.467 20.9504 130.849 6.92499 100.737C0.229603 86.3536 -3.32435 67.0048 4.29126 42.1141Z" fill="#B5B5B5"/>
<path fill-rule="evenodd" clip-rule="evenodd" d="M30.9785 82.6749H42.8462V74.4421H65.1218V65.4404H42.8462V61.6924H68.0729V51.9859H30.9785V82.6749ZM71.4682 82.6749H83.3358V66.2733L95.2035 82.6749H101.137L113.005 66.2733V82.6749H124.873V51.9219H110.054L98.1545 67.2984L86.3186 51.9219H71.4682V82.6749ZM154.954 82.6749V61.6924H169.043V51.9859H128.998V61.6924H143.087V82.6749H154.954Z" fill="#FEFEFE"/>
</g>
<defs>
<clipPath id="clip0_653_2002">
<rect width="200" height="134.597" fill="white"/>
</clipPath>
</defs>
</svg>
