<svg width="32" height="37" viewBox="0 0 32 37" fill="none" xmlns="http://www.w3.org/2000/svg">
<path d="M24.2398 10.7837C23.6008 10.7837 23.0812 10.2641 23.0812 9.6251H21.9226C21.9226 10.7014 22.6641 11.6011 23.6605 11.86V12.5216H24.8191V11.86C25.8155 11.6011 26.557 10.7014 26.557 9.6251C26.557 8.34717 25.5177 7.3079 24.2398 7.3079C23.6008 7.3079 23.0812 6.78827 23.0812 6.1493C23.0812 5.51034 23.6008 4.99071 24.2398 4.99071C24.8788 4.99071 25.3984 5.51034 25.3984 6.1493H26.557C26.557 5.07297 25.8155 4.17331 24.8191 3.91437V3.25281H23.6605V3.91437C22.6641 4.17331 21.9226 5.07297 21.9226 6.1493C21.9226 7.42724 22.9619 8.4665 24.2398 8.4665C24.8788 8.4665 25.3984 8.98613 25.3984 9.6251C25.3984 10.2641 24.8788 10.7837 24.2398 10.7837Z" fill="black"/>
<path d="M3.38502 36.2729H23.0812C24.7125 36.2729 25.9777 34.404 25.9777 32.7971V15.2078C29.2936 14.42 31.7707 11.4412 31.7707 7.8872C31.7707 3.73478 28.3922 0.356308 24.2398 0.356308C20.8961 0.356308 18.0575 2.54838 17.0773 5.57H3.38502C1.78789 5.57 0.488525 6.86937 0.488525 8.4665V32.7971C0.488525 34.404 1.75372 36.2729 3.38502 36.2729ZM24.2398 1.51491C27.7533 1.51491 30.6121 4.37375 30.6121 7.8872C30.6121 11.4007 27.7533 14.2595 24.2398 14.2595C20.7263 14.2595 17.8675 11.4007 17.8675 7.8872C17.8675 4.37375 20.7263 1.51491 24.2398 1.51491ZM22.5019 15.2078V17.7353C22.5019 18.0545 22.2418 18.3146 21.9226 18.3146H4.54362C4.22443 18.3146 3.96432 18.0545 3.96432 17.7353V10.2044C3.96432 9.8852 4.22443 9.6251 4.54362 9.6251H16.9192C17.5744 12.3826 19.7444 14.5526 22.5019 15.2078ZM1.64712 8.4665C1.64712 7.50834 2.42686 6.7286 3.38502 6.7286H16.8074C16.7489 7.10746 16.7089 7.49212 16.7089 7.8872C16.7089 8.083 16.7234 8.27475 16.7385 8.4665H4.54362C3.58546 8.4665 2.80572 9.24624 2.80572 10.2044V17.7353C2.80572 18.6935 3.58546 19.4732 4.54362 19.4732H21.9226C22.8808 19.4732 23.6605 18.6935 23.6605 17.7353V15.3885C23.8522 15.4036 24.044 15.4181 24.2398 15.4181C24.4356 15.4181 24.6274 15.4036 24.8191 15.3885V32.7971C24.8191 33.8091 23.9762 35.1143 23.0812 35.1143H3.38502C2.49 35.1143 1.64712 33.8091 1.64712 32.7971V8.4665Z" fill="black"/>
<path d="M12.6539 33.3764H13.8125V28.1627H21.9227V27.0041H13.8125V21.2111H12.6539V27.0041H4.5437V28.1627H12.6539V33.3764Z" fill="black"/>
<path d="M15.5503 31.6385H20.1847V32.7971H15.5503V31.6385Z" fill="black"/>
<path d="M15.5503 29.3213H20.1847V30.4799H15.5503V29.3213Z" fill="black"/>
<path d="M7.44005 25.8455H8.59865V24.1076H10.3365V22.949H8.59865V21.2111H7.44005V22.949H5.70215V24.1076H7.44005V25.8455Z" fill="black"/>
<path d="M5.70215 30.4799H10.3365V31.6385H5.70215V30.4799Z" fill="black"/>
<path d="M16.5067 25.7059L18.1571 24.2912L19.8075 25.7059L20.5618 24.8265L19.0475 23.5283L20.5618 22.2301L19.8075 21.3507L18.1571 22.7653L16.5067 21.3507L15.7524 22.2301L17.2667 23.5283L15.7524 24.8265L16.5067 25.7059Z" fill="black"/>
</svg>
