<svg width="51" height="51" viewBox="0 0 51 51" fill="none" xmlns="http://www.w3.org/2000/svg">
<g clip-path="url(#clip0_173_444)">
<path d="M41.8798 6.44396C41.8798 5.01572 40.7218 3.85772 39.2936 3.85772H36.7074C36.7074 2.42948 35.5494 1.27148 34.1211 1.27148C32.6929 1.27148 31.5349 2.42948 31.5349 3.85772H28.0866C28.0866 2.42948 26.9286 1.27148 25.5003 1.27148C24.0721 1.27148 22.9141 2.42948 22.9141 3.85772H19.4658C19.4658 2.42948 18.3078 1.27148 16.8795 1.27148C15.4513 1.27148 14.2933 2.42948 14.2933 3.85772H10.845C10.845 2.42948 9.68696 1.27148 8.25872 1.27148C6.83048 1.27148 5.67248 2.42948 5.67248 3.85772H3.08624C1.658 3.85772 0.5 5.01572 0.5 6.44396V42.6513C0.5 43.1274 0.886 43.5134 1.36208 43.5134H3.94832V46.0996C3.94832 46.5757 4.33432 46.9617 4.8104 46.9617H27.5116C27.5229 46.9617 27.5313 46.9558 27.5419 46.9558C32.1078 50.1049 38.0611 50.4042 42.92 47.7283C47.7789 45.0528 50.7086 39.8614 50.4884 34.3193C50.2683 28.7768 46.9357 23.8346 41.8798 21.5527V6.44396ZM33.259 3.85772C33.259 3.38164 33.645 2.99564 34.1211 2.99564C34.5972 2.99564 34.9832 3.38164 34.9832 3.85772V6.44396H33.259V3.85772ZM24.6382 3.85772C24.6382 3.38164 25.0242 2.99564 25.5003 2.99564C25.9764 2.99564 26.3624 3.38164 26.3624 3.85772V6.44396H24.6382V3.85772ZM16.0174 3.85772C16.0174 3.38164 16.4034 2.99564 16.8795 2.99564C17.3556 2.99564 17.7416 3.38164 17.7416 3.85772V6.44396H16.0174V3.85772ZM7.39664 3.85772C7.39664 3.38164 7.78264 2.99564 8.25872 2.99564C8.7348 2.99564 9.1208 3.38164 9.1208 3.85772V6.44396H7.39664V3.85772ZM2.22416 6.44396C2.22416 5.96788 2.61016 5.58188 3.08624 5.58188H5.67248V7.30605C5.67248 7.78213 6.05848 8.16813 6.53456 8.16813H9.98288C10.459 8.16813 10.845 7.78213 10.845 7.30605V5.58188H14.2933V7.30605C14.2933 7.78213 14.6793 8.16813 15.1554 8.16813H18.6037C19.0798 8.16813 19.4658 7.78213 19.4658 7.30605V5.58188H22.9141V7.30605C22.9141 7.78213 23.3001 8.16813 23.7762 8.16813H27.2245C27.7006 8.16813 28.0866 7.78213 28.0866 7.30605V5.58188H31.5349V7.30605C31.5349 7.78213 31.9209 8.16813 32.397 8.16813H35.8453C36.3214 8.16813 36.7074 7.78213 36.7074 7.30605V5.58188H39.2936C39.7697 5.58188 40.1557 5.96788 40.1557 6.44396V10.7544H2.22416V6.44396ZM5.67248 43.5134H24.0203C24.4602 44.1246 24.9468 44.7009 25.4755 45.2376H5.67248V43.5134ZM48.7765 34.8926C48.7765 42.0342 42.9869 47.8238 35.8453 47.8238C28.7037 47.8238 22.9141 42.0342 22.9141 34.8926C22.9141 27.751 28.7037 21.9614 35.8453 21.9614C42.9835 21.9694 48.7685 27.7543 48.7765 34.8926ZM35.8453 20.2372C30.696 20.2339 25.9234 22.9346 23.2752 27.3507C20.6271 31.7663 20.4924 37.249 22.9208 41.7892H2.22416V12.4785H40.1557V20.8863C38.7594 20.4557 37.3064 20.2368 35.8453 20.2372Z" fill="black"/>
<path d="M8.25909 15.9268C6.83085 15.9268 5.67285 17.0848 5.67285 18.513C5.67285 19.9412 6.83085 21.0992 8.25909 21.0992C9.68733 21.0992 10.8453 19.9412 10.8453 18.513C10.8453 17.0848 9.68733 15.9268 8.25909 15.9268ZM8.25909 19.3751C7.78301 19.3751 7.39701 18.9891 7.39701 18.513C7.39701 18.0369 7.78301 17.6509 8.25909 17.6509C8.73517 17.6509 9.12117 18.0369 9.12117 18.513C9.12117 18.9891 8.73517 19.3751 8.25909 19.3751Z" fill="black"/>
<path d="M16.8792 15.9268C15.451 15.9268 14.293 17.0848 14.293 18.513C14.293 19.9412 15.451 21.0992 16.8792 21.0992C18.3075 21.0992 19.4654 19.9412 19.4654 18.513C19.4654 17.0848 18.3075 15.9268 16.8792 15.9268ZM16.8792 19.3751C16.4031 19.3751 16.0171 18.9891 16.0171 18.513C16.0171 18.0369 16.4031 17.6509 16.8792 17.6509C17.3553 17.6509 17.7413 18.0369 17.7413 18.513C17.7413 18.9891 17.3553 19.3751 16.8792 19.3751Z" fill="black"/>
<path d="M25.5003 15.9268C24.0721 15.9268 22.9141 17.0848 22.9141 18.513C22.9141 19.9412 24.0721 21.0992 25.5003 21.0992C26.9285 21.0992 28.0865 19.9412 28.0865 18.513C28.0865 17.0848 26.9285 15.9268 25.5003 15.9268ZM25.5003 19.3751C25.0242 19.3751 24.6382 18.9891 24.6382 18.513C24.6382 18.0369 25.0242 17.6509 25.5003 17.6509C25.9764 17.6509 26.3624 18.0369 26.3624 18.513C26.3624 18.9891 25.9764 19.3751 25.5003 19.3751Z" fill="black"/>
<path d="M8.25909 22.8242C6.83085 22.8242 5.67285 23.9822 5.67285 25.4105C5.67285 26.8387 6.83085 27.9967 8.25909 27.9967C9.68733 27.9967 10.8453 26.8387 10.8453 25.4105C10.8453 23.9822 9.68733 22.8242 8.25909 22.8242ZM8.25909 26.2725C7.78301 26.2725 7.39701 25.8865 7.39701 25.4105C7.39701 24.9344 7.78301 24.5484 8.25909 24.5484C8.73517 24.5484 9.12117 24.9344 9.12117 25.4105C9.12117 25.8865 8.73517 26.2725 8.25909 26.2725Z" fill="black"/>
<path d="M16.8792 22.8242C15.451 22.8242 14.293 23.9822 14.293 25.4105C14.293 26.8387 15.451 27.9967 16.8792 27.9967C18.3075 27.9967 19.4654 26.8387 19.4654 25.4105C19.4654 23.9822 18.3075 22.8242 16.8792 22.8242ZM16.8792 26.2725C16.4031 26.2725 16.0171 25.8865 16.0171 25.4105C16.0171 24.9344 16.4031 24.5484 16.8792 24.5484C17.3553 24.5484 17.7413 24.9344 17.7413 25.4105C17.7413 25.8865 17.3553 26.2725 16.8792 26.2725Z" fill="black"/>
<path d="M8.25909 29.7207C6.83085 29.7207 5.67285 30.8787 5.67285 32.3069C5.67285 33.7352 6.83085 34.8932 8.25909 34.8932C9.68733 34.8932 10.8453 33.7352 10.8453 32.3069C10.8453 30.8787 9.68733 29.7207 8.25909 29.7207ZM8.25909 33.169C7.78301 33.169 7.39701 32.783 7.39701 32.3069C7.39701 31.8309 7.78301 31.4449 8.25909 31.4449C8.73517 31.4449 9.12117 31.8309 9.12117 32.3069C9.12117 32.783 8.73517 33.169 8.25909 33.169Z" fill="black"/>
<path d="M16.8792 29.7207C15.451 29.7207 14.293 30.8787 14.293 32.3069C14.293 33.7352 15.451 34.8932 16.8792 34.8932C18.3075 34.8932 19.4654 33.7352 19.4654 32.3069C19.4654 30.8787 18.3075 29.7207 16.8792 29.7207ZM16.8792 33.169C16.4031 33.169 16.0171 32.783 16.0171 32.3069C16.0171 31.8309 16.4031 31.4449 16.8792 31.4449C17.3553 31.4449 17.7413 31.8309 17.7413 32.3069C17.7413 32.783 17.3553 33.169 16.8792 33.169Z" fill="black"/>
<path d="M24.6387 34.8926C24.6387 41.0821 29.6562 46.0996 35.8457 46.0996C42.0352 46.0996 47.0528 41.0821 47.0528 34.8926C47.0528 28.7031 42.0352 23.6855 35.8457 23.6855C29.6592 23.6927 24.6458 28.7061 24.6387 34.8926ZM45.3286 34.8926H43.6044C43.1284 34.8926 42.7424 35.2786 42.7424 35.7547C42.7424 36.2308 43.1284 36.6167 43.6044 36.6167H45.164C44.3865 40.7895 40.934 43.9394 36.7078 44.3317V42.6513C36.7078 42.1752 36.3218 41.7892 35.8457 41.7892C35.3696 41.7892 34.9836 42.1752 34.9836 42.6513V44.3317C30.7574 43.9394 27.3049 40.7895 26.5274 36.6167H28.087C28.5631 36.6167 28.9491 36.2308 28.9491 35.7547C28.9491 35.2786 28.5631 34.8926 28.087 34.8926H26.3628C26.3691 29.9929 30.1045 25.903 34.9836 25.4539V27.1339C34.9836 27.6099 35.3696 27.9959 35.8457 27.9959C36.3218 27.9959 36.7078 27.6099 36.7078 27.1339V25.4539C41.5869 25.903 45.3223 29.9929 45.3286 34.8926Z" fill="black"/>
<path d="M36.0305 34.479L34.8385 32.6905C34.5741 32.2944 34.0387 32.1874 33.6426 32.4514C33.2465 32.7157 33.1395 33.2512 33.4039 33.6473L35.1281 36.2335C35.264 36.4364 35.4795 36.5724 35.7212 36.6077C35.7624 36.614 35.8037 36.6174 35.8453 36.617C36.047 36.6174 36.2423 36.5467 36.3972 36.4179L41.5697 32.1075C41.9359 31.8027 41.9856 31.2589 41.6808 30.8931C41.376 30.5268 40.8322 30.4768 40.466 30.7815L36.0305 34.479Z" fill="black"/>
</g>
<defs>
<clipPath id="clip0_173_444">
<rect width="50" height="50" fill="white" transform="translate(0.5 0.302734)"/>
</clipPath>
</defs>
</svg>
