<svg width="51" height="51" viewBox="0 0 51 51" fill="none" xmlns="http://www.w3.org/2000/svg">
<path d="M21.5938 9.67773H29.4062V11.2402H21.5938V9.67773Z" fill="black"/>
<path d="M21.5938 12.8027H29.4062V14.3652H21.5938V12.8027Z" fill="black"/>
<path d="M45.0312 42.4902V36.2402C45.0312 35.8934 44.8023 35.5879 44.4688 35.4902L26.2812 30.1855V20.6152H31.75C32.182 20.6152 32.5312 20.2652 32.5312 19.834V7.33398C32.5312 7.12695 32.4492 6.92773 32.3023 6.78164L27.6148 2.09414C27.4688 1.94727 27.2703 1.86523 27.0625 1.86523H19.25C18.818 1.86523 18.4688 2.21523 18.4688 2.64648V19.834C18.4688 20.2652 18.818 20.6152 19.25 20.6152H24.7188V30.1855L6.53125 35.4902C6.19766 35.5879 5.96875 35.8934 5.96875 36.2402V42.4902C5.96875 42.8371 6.19766 43.1426 6.53125 43.2402L25.2812 48.709C25.3531 48.7301 25.4258 48.7402 25.5 48.7402C25.5742 48.7402 25.6469 48.7301 25.7188 48.709L44.4688 43.2402C44.8023 43.1426 45.0312 42.8371 45.0312 42.4902ZM27.8438 4.53242L29.8641 6.55273H27.8438V4.53242ZM20.0312 3.42773H26.2812V7.33398C26.2812 7.76523 26.6305 8.11523 27.0625 8.11523H30.9688V19.0527H20.0312V3.42773ZM24.7188 31.8129V35.9168L22.9273 34.1254L21.8227 35.2301L24.9477 38.3551C25.1 38.5074 25.3 38.584 25.5 38.584C25.7 38.584 25.9 38.5074 26.0523 38.3551L29.1773 35.2301L28.0727 34.1254L26.2812 35.9168V31.8129L41.4602 36.2402L25.5 40.8949L9.53984 36.2402L24.7188 31.8129ZM7.53125 37.2816L24.7188 42.2949V46.9176L7.53125 41.9043V37.2816ZM26.2812 46.9176V42.2949L43.4688 37.2816V41.9043L26.2812 46.9176Z" fill="black"/>
<path d="M21.5938 6.55273H24.7188V8.11523H21.5938V6.55273Z" fill="black"/>
<path d="M2.84375 20.6152H8.3125C8.3125 22.7691 10.0648 24.5215 12.2188 24.5215H14.5625C15.8547 24.5215 16.9063 25.573 16.9063 26.8652V28.1043L15.1148 26.3129L14.0102 27.4176L17.1352 30.5426C17.2875 30.6949 17.4875 30.7715 17.6875 30.7715C17.8875 30.7715 18.0875 30.6949 18.2398 30.5426L21.3648 27.4176L20.2602 26.3129L18.4688 28.1043V26.8652C18.4688 24.7113 16.7164 22.959 14.5625 22.959H12.2188C10.9266 22.959 9.875 21.9074 9.875 20.6152H15.3438C15.7758 20.6152 16.125 20.2652 16.125 19.834V7.33398C16.125 7.12695 16.043 6.92773 15.8961 6.78164L11.2086 2.09414C11.0625 1.94727 10.8641 1.86523 10.6563 1.86523H2.84375C2.41172 1.86523 2.0625 2.21523 2.0625 2.64648V19.834C2.0625 20.2652 2.41172 20.6152 2.84375 20.6152ZM11.4375 4.53242L13.4578 6.55273H11.4375V4.53242ZM3.625 3.42773H9.875V7.33398C9.875 7.76523 10.2242 8.11523 10.6563 8.11523H14.5625V19.0527H3.625V3.42773Z" fill="black"/>
<path d="M5.1875 9.67773H13V11.2402H5.1875V9.67773Z" fill="black"/>
<path d="M5.1875 12.8027H13V14.3652H5.1875V12.8027Z" fill="black"/>
<path d="M5.1875 15.9277H13V17.4902H5.1875V15.9277Z" fill="black"/>
<path d="M5.1875 6.55273H8.3125V8.11523H5.1875V6.55273Z" fill="black"/>
<path d="M48.9371 19.834V7.33398C48.9371 7.12695 48.8551 6.92773 48.7082 6.78164L44.0207 2.09414C43.8746 1.94727 43.6762 1.86523 43.4684 1.86523H35.6559C35.2238 1.86523 34.8746 2.21523 34.8746 2.64648V19.834C34.8746 20.2652 35.2238 20.6152 35.6559 20.6152H41.1246C41.1246 21.9074 40.073 22.959 38.7809 22.959H36.4371C34.2832 22.959 32.5309 24.7113 32.5309 26.8652V28.1043L30.7395 26.3129L29.6348 27.4176L32.7598 30.5426C32.9121 30.6949 33.1121 30.7715 33.3121 30.7715C33.5121 30.7715 33.7121 30.6949 33.8645 30.5426L36.9895 27.4176L35.8848 26.3129L34.0934 28.1043V26.8652C34.0934 25.573 35.1449 24.5215 36.4371 24.5215H38.7809C40.9348 24.5215 42.6871 22.7691 42.6871 20.6152H48.1559C48.5879 20.6152 48.9371 20.2652 48.9371 19.834ZM44.2496 4.53242L46.2699 6.55273H44.2496V4.53242ZM36.4371 19.0527V3.42773H42.6871V7.33398C42.6871 7.76523 43.0363 8.11523 43.4684 8.11523H47.3746V19.0527H36.4371Z" fill="black"/>
<path d="M38 9.67773H45.8125V11.2402H38V9.67773Z" fill="black"/>
<path d="M38 12.8027H45.8125V14.3652H38V12.8027Z" fill="black"/>
<path d="M38 15.9277H45.8125V17.4902H38V15.9277Z" fill="black"/>
<path d="M38 6.55273H41.125V8.11523H38V6.55273Z" fill="black"/>
<path d="M21.5938 15.9277H23.1562V17.4902H21.5938V15.9277Z" fill="black"/>
<path d="M24.7188 15.9277H26.2812V17.4902H24.7188V15.9277Z" fill="black"/>
<path d="M27.8438 15.9277H29.4062V17.4902H27.8438V15.9277Z" fill="black"/>
</svg>
