<svg width="51" height="51" viewBox="0 0 51 51" fill="none" xmlns="http://www.w3.org/2000/svg">
<path d="M41.9231 15.4116H3.27756C2.78645 15.4116 2.38867 15.0138 2.38867 14.5227C2.38867 14.0316 2.78645 13.6338 3.27756 13.6338H41.922C42.4131 13.6338 42.8109 14.0316 42.8109 14.5227C42.8109 15.0138 42.4142 15.4116 41.9231 15.4116Z" fill="black"/>
<path d="M32.7187 43.2433H7.14201C4.52089 43.2433 2.38867 41.1111 2.38867 38.49V11.7867C2.38867 9.16556 4.52089 7.03223 7.14201 7.03223H38.0587C40.6798 7.03223 42.812 9.16445 42.812 11.7867V28.1478C42.812 28.6389 42.4142 29.0367 41.9231 29.0367C41.432 29.0367 41.0342 28.6389 41.0342 28.1478V11.7867C41.0342 10.1456 39.6998 8.81 38.0587 8.81H7.14201C5.50089 8.81 4.16645 10.1456 4.16645 11.7867V38.49C4.16645 40.1311 5.50089 41.4656 7.14201 41.4656H32.7187C33.2098 41.4656 33.6076 41.8633 33.6076 42.3545C33.6076 42.8456 33.2098 43.2433 32.7187 43.2433Z" fill="black"/>
<path d="M12.4238 31.5596H7.95822C7.46711 31.5596 7.06934 31.1618 7.06934 30.6707V26.2063C7.06934 25.7152 7.46711 25.3174 7.95822 25.3174H12.4227C12.9138 25.3174 13.3116 25.7152 13.3116 26.2063V30.6707C13.3127 31.1607 12.9149 31.5596 12.4238 31.5596ZM8.84711 29.7818H11.5338V27.0952H8.84711V29.7818Z" fill="black"/>
<path d="M20.6961 31.5596H16.2317C15.7406 31.5596 15.3428 31.1618 15.3428 30.6707V26.2063C15.3428 25.7152 15.7406 25.3174 16.2317 25.3174H20.6961C21.1872 25.3174 21.585 25.7152 21.585 26.2063V30.6707C21.585 31.1607 21.1872 31.5596 20.6961 31.5596ZM17.1206 29.7818H19.8072V27.0952H17.1206V29.7818Z" fill="black"/>
<path d="M28.9686 31.5596H24.5041C24.013 31.5596 23.6152 31.1618 23.6152 30.6707V26.2063C23.6152 25.7152 24.013 25.3174 24.5041 25.3174H28.9686C29.4597 25.3174 29.8575 25.7152 29.8575 26.2063V30.6707C29.8575 31.1607 29.4597 31.5596 28.9686 31.5596ZM25.393 29.7818H28.0797V27.0952H25.393V29.7818Z" fill="black"/>
<path d="M12.4238 39.1485H7.95822C7.46711 39.1485 7.06934 38.7507 7.06934 38.2596V33.7951C7.06934 33.304 7.46711 32.9062 7.95822 32.9062H12.4227C12.9138 32.9062 13.3116 33.304 13.3116 33.7951V38.2596C13.3127 38.7507 12.9149 39.1485 12.4238 39.1485ZM8.84711 37.3707H11.5338V34.684H8.84711V37.3707Z" fill="black"/>
<path d="M20.6961 39.1485H16.2317C15.7406 39.1485 15.3428 38.7507 15.3428 38.2596V33.7951C15.3428 33.304 15.7406 32.9062 16.2317 32.9062H20.6961C21.1872 32.9062 21.585 33.304 21.585 33.7951V38.2596C21.585 38.7507 21.1872 39.1485 20.6961 39.1485ZM17.1206 37.3707H19.8072V34.684H17.1206V37.3707Z" fill="black"/>
<path d="M12.4238 23.9698H7.95822C7.46711 23.9698 7.06934 23.572 7.06934 23.0809V18.6164C7.06934 18.1253 7.46711 17.7275 7.95822 17.7275H12.4227C12.9138 17.7275 13.3116 18.1253 13.3116 18.6164V23.0809C13.3127 23.572 12.9149 23.9698 12.4238 23.9698ZM8.84711 22.192H11.5338V19.5053H8.84711V22.192Z" fill="black"/>
<path d="M20.6961 23.9698H16.2317C15.7406 23.9698 15.3428 23.572 15.3428 23.0809V18.6164C15.3428 18.1253 15.7406 17.7275 16.2317 17.7275H20.6961C21.1872 17.7275 21.585 18.1253 21.585 18.6164V23.0809C21.585 23.572 21.1872 23.9698 20.6961 23.9698ZM17.1206 22.192H19.8072V19.5053H17.1206V22.192Z" fill="black"/>
<path d="M28.9686 23.9698H24.5041C24.013 23.9698 23.6152 23.572 23.6152 23.0809V18.6164C23.6152 18.1253 24.013 17.7275 24.5041 17.7275H28.9686C29.4597 17.7275 29.8575 18.1253 29.8575 18.6164V23.0809C29.8575 23.572 29.4597 23.9698 28.9686 23.9698ZM25.393 22.192H28.0797V19.5053H25.393V22.192Z" fill="black"/>
<path d="M37.2401 23.9698H32.7756C32.2845 23.9698 31.8867 23.572 31.8867 23.0809V18.6164C31.8867 18.1253 32.2845 17.7275 32.7756 17.7275H37.2401C37.7312 17.7275 38.1289 18.1253 38.1289 18.6164V23.0809C38.1289 23.572 37.7312 23.9698 37.2401 23.9698ZM33.6645 22.192H36.3512V19.5053H33.6645V22.192Z" fill="black"/>
<path d="M12.2082 11.1835C11.7171 11.1835 11.3193 10.7857 11.3193 10.2946V5.54905C11.3193 5.05793 11.7171 4.66016 12.2082 4.66016C12.6993 4.66016 13.0971 5.05793 13.0971 5.54905V10.2946C13.0971 10.7857 12.6993 11.1835 12.2082 11.1835Z" fill="black"/>
<path d="M22.5988 11.1835C22.1077 11.1835 21.71 10.7857 21.71 10.2946V5.54905C21.71 5.05793 22.1077 4.66016 22.5988 4.66016C23.09 4.66016 23.4877 5.05793 23.4877 5.54905V10.2946C23.4877 10.7857 23.09 11.1835 22.5988 11.1835Z" fill="black"/>
<path d="M32.9914 11.1835C32.5003 11.1835 32.1025 10.7857 32.1025 10.2946V5.54905C32.1025 5.05793 32.5003 4.66016 32.9914 4.66016C33.4825 4.66016 33.8803 5.05793 33.8803 5.54905V10.2946C33.8803 10.7857 33.4825 11.1835 32.9914 11.1835Z" fill="black"/>
<path d="M39.0198 45.9449C33.7309 45.9449 29.4287 41.6416 29.4287 36.3538C29.4287 31.066 33.7309 26.7627 39.0198 26.7627C44.3087 26.7627 48.6109 31.0649 48.6109 36.3538C48.6109 41.6427 44.3087 45.9449 39.0198 45.9449ZM39.0198 28.5405C34.712 28.5405 31.2065 32.046 31.2065 36.3538C31.2065 40.6616 34.712 44.1671 39.0198 44.1671C43.3287 44.1671 46.8332 40.6616 46.8332 36.3538C46.8332 32.046 43.3276 28.5405 39.0198 28.5405Z" fill="black"/>
<path d="M39.1086 33.1546C38.6175 33.1546 38.2197 32.7568 38.2197 32.2657V31.009C38.2197 30.5179 38.6175 30.1201 39.1086 30.1201C39.5997 30.1201 39.9975 30.5179 39.9975 31.009V32.2657C39.9975 32.7568 39.5997 33.1546 39.1086 33.1546Z" fill="black"/>
<path d="M38.9309 42.5872C38.4398 42.5872 38.042 42.1894 38.042 41.6983V40.4416C38.042 39.9505 38.4398 39.5527 38.9309 39.5527C39.422 39.5527 39.8198 39.9505 39.8198 40.4416V41.6983C39.8198 42.1894 39.422 42.5872 38.9309 42.5872Z" fill="black"/>
<path d="M38.8105 41.3324C38.7572 41.3324 38.705 41.3313 38.6527 41.328C37.4339 41.2668 36.0183 40.4491 36.0383 38.3446C36.0427 37.8568 36.4405 37.4646 36.9272 37.4646H36.9361C37.4272 37.4691 37.8205 37.8713 37.8161 38.3624C37.8083 39.1324 38.1116 39.5213 38.7416 39.5535C39.3983 39.5846 40.1072 39.1724 40.1472 38.7324C40.1483 38.7213 40.1494 38.7091 40.1505 38.6979C40.2716 37.7746 38.8683 37.2146 38.5861 37.1124C38.0927 36.9335 37.3761 36.6368 36.8416 36.1391C36.165 35.5079 35.9194 34.6713 36.1505 33.7846C36.645 31.8857 38.2483 31.2235 39.5294 31.4102C41.0383 31.6313 42.0527 32.8702 41.9972 34.4235C41.9794 34.9146 41.5694 35.2957 41.0772 35.2802C40.5861 35.2624 40.2027 34.8502 40.2205 34.3602C40.2483 33.5891 39.7483 33.2391 39.2716 33.1702C38.7483 33.0935 38.1061 33.3324 37.8705 34.2335C37.8094 34.4657 37.6972 34.8991 39.1927 35.4424C41.0838 36.1302 42.1005 37.4268 41.915 38.9124C41.7705 40.3924 40.2272 41.3324 38.8105 41.3324Z" fill="black"/>
</svg>
