<svg width="38" height="38" viewBox="0 0 38 38" fill="none" xmlns="http://www.w3.org/2000/svg">
<path d="M34.1498 5.95471H27.5129V3.77621C27.5129 3.47644 27.2699 3.23341 26.9701 3.23341C26.6702 3.23341 26.4273 3.47644 26.4273 3.77621V5.95471H24.1789C23.879 5.95471 23.6361 6.19774 23.6361 6.49751C23.6361 6.79728 23.879 7.04031 24.1789 7.04031H26.4273V9.33873H26.0199C25.451 9.33873 24.9882 9.80155 24.9882 10.3703V16.7604C24.9882 17.3293 25.451 17.792 26.0199 17.792H26.4273V22.0983C26.4273 22.3981 26.6702 22.6411 26.9701 22.6411C27.2699 22.6411 27.5129 22.3981 27.5129 22.0983V17.792H27.9203C28.489 17.792 28.9519 17.3292 28.9519 16.7604V10.3703C28.9519 9.80148 28.489 9.33873 27.9203 9.33873H27.5129V7.04031H34.1498C35.4541 7.04031 36.5153 8.10144 36.5153 9.40574V27.9835H1.74404V9.40582C1.74404 8.10151 2.80518 7.04038 4.10948 7.04038H13.6245V8.0997H13.2171C12.6483 8.0997 12.1855 8.56253 12.1855 9.13131V15.5214C12.1855 16.0903 12.6483 16.553 13.2171 16.553H13.6245V21.3494C13.6245 21.6492 13.8675 21.8922 14.1673 21.8922C14.4671 21.8922 14.7101 21.6492 14.7101 21.3494V16.553H15.1175C15.6863 16.553 16.1491 16.0902 16.1491 15.5214V9.13131C16.1491 8.56245 15.6863 8.0997 15.1175 8.0997H14.7101V7.04031H16.9585C17.2583 7.04031 17.5013 6.79728 17.5013 6.49751C17.5013 6.19774 17.2583 5.95471 16.9585 5.95471H14.7101V5.68664C14.7101 5.38687 14.4671 5.14384 14.1673 5.14384C13.8675 5.14384 13.6245 5.38687 13.6245 5.68664V5.95471H4.10948C2.20658 5.95471 0.658447 7.50284 0.658447 9.40574V28.5263C0.658447 30.4292 2.20658 31.9774 4.10948 31.9774H12.3722V34.7372L10.6228 36.7666H9.92834C9.62857 36.7666 9.38554 37.0096 9.38554 37.3094C9.38554 37.6091 9.62857 37.8522 9.92834 37.8522H28.2809C28.5807 37.8522 28.8237 37.6091 28.8237 37.3094C28.8237 37.0096 28.5807 36.7666 28.2809 36.7666H27.6365L25.887 34.7372V31.9774H34.1498C36.0527 31.9774 37.6009 30.4292 37.6009 28.5263V9.40582C37.6009 7.50291 36.0527 5.95471 34.1498 5.95471ZM27.8663 16.7066H26.0739V10.4244H27.8664V16.7066H27.8663ZM15.0635 15.4674H13.271V9.1853H15.0635V15.4674ZM34.1498 30.8918H23.1643C22.8644 30.8918 22.6215 31.1348 22.6215 31.4346C22.6215 31.7343 22.8644 31.9774 23.1643 31.9774H24.8014V34.3961H23.4494C23.1495 34.3961 22.9066 34.6392 22.9066 34.9389C22.9066 35.2387 23.1495 35.4817 23.4494 35.4817H25.0955L26.2031 36.7666H12.0561L13.1638 35.4817H14.8099C15.1097 35.4817 15.3527 35.2387 15.3527 34.9389C15.3527 34.6392 15.1097 34.3961 14.8099 34.3961H13.4578V31.9774H20.851C21.1509 31.9774 21.3938 31.7343 21.3938 31.4346C21.3938 31.1348 21.1509 30.8918 20.851 30.8918H4.10948C2.99197 30.8918 2.05365 30.1126 1.80759 29.0691H36.4517C36.2057 30.1126 35.2674 30.8918 34.1498 30.8918Z" fill="black"/>
<path d="M6.32673 16.624C6.02696 16.624 5.78394 16.8671 5.78394 17.1668V18.4772C5.78394 19.0461 6.24669 19.5088 6.81554 19.5088H7.22293V22.3995C7.22293 22.6992 7.46596 22.9423 7.76573 22.9423C8.06549 22.9423 8.30852 22.6992 8.30852 22.3995V19.5088H8.71591C9.28476 19.5088 9.74751 19.0461 9.74751 18.4772V12.0871C9.74751 11.5183 9.28469 11.0554 8.71591 11.0554H8.30852V10.1873C8.30852 9.88748 8.06549 9.64445 7.76573 9.64445C7.46596 9.64445 7.22293 9.88748 7.22293 10.1873V11.0554H6.81554C6.24669 11.0554 5.78394 11.5183 5.78394 12.0871V14.8536C5.78394 15.1534 6.02696 15.3964 6.32673 15.3964C6.6265 15.3964 6.86953 15.1534 6.86953 14.8536V12.1411H7.76507H7.7658C7.7658 12.1411 7.76623 12.1411 7.76652 12.1411H8.66207V18.4233H6.86953V17.1669C6.86953 16.8671 6.6265 16.624 6.32673 16.624Z" fill="black"/>
<path d="M19.6185 15.4789H20.026V18.3695C20.026 18.6693 20.2689 18.9123 20.5688 18.9123C20.8686 18.9123 21.1116 18.6693 21.1116 18.3695V15.4789H21.519C22.0877 15.4789 22.5506 15.0161 22.5506 14.4473V10.1898C22.5506 9.89 22.3076 9.64697 22.0078 9.64697C21.7079 9.64697 21.465 9.89 21.465 10.1898V14.3933H19.6725V4.56487H21.465V7.87658C21.465 8.17635 21.7079 8.41938 22.0078 8.41938C22.3076 8.41938 22.5506 8.17635 22.5506 7.87658V4.51087C22.5506 3.9421 22.0877 3.47927 21.519 3.47927H21.1116V1.31981C21.1116 1.02004 20.8686 0.777008 20.5688 0.777008C20.2689 0.777008 20.026 1.02004 20.026 1.31981V3.47927H19.6185C19.0497 3.47927 18.5869 3.9421 18.5869 4.51087V14.4473C18.5869 15.0162 19.0497 15.4789 19.6185 15.4789Z" fill="black"/>
<path d="M30.1025 15.6581C30.2006 15.84 30.3876 15.9434 30.5807 15.9434C30.6677 15.9434 30.7559 15.9224 30.8379 15.8783L33.3381 14.5302L33.1583 15.0022C33.0515 15.2823 33.1922 15.5959 33.4723 15.7027C33.5359 15.7269 33.6012 15.7384 33.6655 15.7384C33.8841 15.7384 34.0903 15.6052 34.1728 15.3887L34.7839 13.7844C34.8907 13.5043 34.7501 13.1907 34.4699 13.0839L32.7672 12.4353C32.4871 12.3286 32.1734 12.4691 32.0667 12.7493C31.9599 13.0294 32.1006 13.343 32.3807 13.4498L32.7755 13.6002L30.3226 14.9227C30.0588 15.065 29.9602 15.3942 30.1025 15.6581Z" fill="black"/>
<path d="M3.86786 26.2638C3.95601 26.4698 4.15641 26.5932 4.36709 26.5932C4.43831 26.5932 4.51075 26.5791 4.58045 26.5493L11.5846 23.5517L12.2211 25.2193C12.2768 25.3653 12.3927 25.4802 12.5391 25.5346C12.6854 25.589 12.8483 25.5777 12.9858 25.5036L24.5571 19.2646C24.8209 19.1224 24.9195 18.7931 24.7772 18.5293C24.635 18.2655 24.3058 18.1668 24.0418 18.3091L13.0148 24.2545L12.3974 22.6368C12.3447 22.4988 12.2381 22.3882 12.1021 22.3306C11.9661 22.2729 11.8125 22.2733 11.6767 22.3313L4.1533 25.5512C3.87778 25.6692 3.74997 25.9882 3.86786 26.2638Z" fill="black"/>
</svg>
