<svg width="50" height="50" viewBox="0 0 50 50" fill="none" xmlns="http://www.w3.org/2000/svg">
<g clip-path="url(#clip0_921_2581)">
<path d="M10.7969 25.0011C10.8012 28.7658 12.2987 32.3751 14.9609 35.0371C17.623 37.6991 21.2324 39.1964 24.9972 39.2005C43.8363 38.4208 43.8299 11.5775 24.997 10.8008C21.2322 10.805 17.6227 12.3024 14.9606 14.9646C12.2984 17.6268 10.801 21.2362 10.7969 25.0011ZM37.3654 24.1077H35.718C35.4811 24.1077 35.2539 24.2018 35.0863 24.3694C34.9188 24.5369 34.8246 24.7642 34.8246 25.0011C34.8246 25.238 34.9188 25.4653 35.0863 25.6328C35.2539 25.8004 35.4811 25.8945 35.718 25.8945H37.3654C37.1477 28.8656 35.8688 31.6594 33.7622 33.7658C31.6556 35.8723 28.8617 37.151 25.8906 37.3685V35.7211C25.8862 35.487 25.7902 35.264 25.6231 35.0999C25.456 34.9359 25.2313 34.844 24.9971 34.844C24.763 34.844 24.5382 34.936 24.3711 35.1C24.2041 35.264 24.1081 35.4871 24.1037 35.7212V37.3685C21.1326 37.151 18.3388 35.8723 16.2322 33.7658C14.1255 31.6594 12.8467 28.8656 12.6289 25.8945H14.2772C14.5141 25.8945 14.7413 25.8004 14.9089 25.6328C15.0764 25.4653 15.1706 25.238 15.1706 25.0011C15.1706 24.7642 15.0764 24.5369 14.9089 24.3694C14.7413 24.2018 14.5141 24.1077 14.2772 24.1077H12.6289C12.8466 21.1365 14.1255 18.3426 16.2321 16.236C18.3387 14.1294 21.1325 12.8506 24.1037 12.6329V14.2802C24.1037 14.5172 24.1979 14.7444 24.3654 14.9119C24.533 15.0795 24.7602 15.1736 24.9972 15.1736C25.2341 15.1736 25.4613 15.0795 25.6289 14.9119C25.7964 14.7444 25.8906 14.5172 25.8906 14.2802V12.6329C28.8618 12.8506 31.6556 14.1294 33.7622 16.236C35.8688 18.3426 37.1477 21.1365 37.3654 24.1077Z" fill="#F48034"/>
<path d="M48.9436 18.4839C48.8783 18.259 48.7273 18.0688 48.5231 17.9542C48.3189 17.8396 48.0779 17.8097 47.8519 17.871C47.6259 17.9323 47.4331 18.0799 47.3148 18.282C47.1966 18.4841 47.1624 18.7246 47.2197 18.9516C52.8861 40.359 28.2116 56.5792 10.8449 43.1489L15.1922 43.6817C15.309 43.6981 15.4278 43.6909 15.5417 43.6604C15.6556 43.63 15.7621 43.5769 15.855 43.5043C15.9479 43.4318 16.0253 43.3412 16.0824 43.2381C16.1396 43.135 16.1754 43.0215 16.1877 42.9043C16.2021 42.7878 16.1935 42.6697 16.1622 42.5566C16.1309 42.4436 16.0777 42.3378 16.0055 42.2453C15.9332 42.1528 15.8435 42.0755 15.7414 42.0178C15.6393 41.96 15.5268 41.923 15.4103 41.9088L8.19937 41.025C8.06531 41.0111 7.92985 41.0273 7.80285 41.0724C7.67584 41.1175 7.56047 41.1903 7.46513 41.2856C7.3698 41.3808 7.29689 41.4961 7.25171 41.6231C7.20653 41.7501 7.19021 41.8855 7.20394 42.0196L8.08682 49.2305C8.11945 49.4623 8.24174 49.672 8.42738 49.8145C8.61302 49.957 8.84718 50.021 9.07949 49.9926C9.3118 49.9642 9.5237 49.8458 9.66961 49.6628C9.81551 49.4798 9.88376 49.2469 9.85967 49.0141L9.26908 44.1861C28.072 59.3246 55.0244 41.8629 48.9436 18.4839Z" fill="black"/>
<path d="M8.71967 8.72135C12.6951 4.75708 17.9806 2.37979 23.5843 2.0356C29.188 1.69141 34.7247 3.40397 39.1554 6.85192L34.8083 6.31945C34.5753 6.29492 34.3421 6.36285 34.1588 6.50861C33.9755 6.65437 33.8567 6.86629 33.8282 7.09874C33.7996 7.33118 33.8634 7.56556 34.0059 7.7514C34.1485 7.93723 34.3583 8.05966 34.5902 8.09231L41.8011 8.97612C41.9352 8.99037 42.0709 8.97445 42.1981 8.92952C42.3253 8.88459 42.4408 8.81178 42.5362 8.71643C42.6317 8.62107 42.7046 8.50559 42.7496 8.37843C42.7946 8.25126 42.8107 8.11564 42.7965 7.98148L41.9136 0.770556C41.9009 0.653551 41.8648 0.540286 41.8076 0.437436C41.7504 0.334586 41.6731 0.244233 41.5804 0.171703C41.4877 0.0991725 41.3815 0.0459331 41.2679 0.0151231C41.1543 -0.015687 41.0357 -0.0234441 40.919 -0.00769149C40.8026 0.00638434 40.69 0.0432949 40.5878 0.100927C40.4857 0.158559 40.3959 0.235781 40.3236 0.328169C40.2513 0.420558 40.1979 0.526299 40.1666 0.639338C40.1352 0.752376 40.1264 0.870492 40.1408 0.986921L40.7319 5.81915C36.7784 2.57695 31.9199 0.635311 26.8208 0.259814C21.7217 -0.115683 16.6311 1.0933 12.2454 3.7214C7.85963 6.34949 4.3929 10.2684 2.3194 14.9419C0.245896 19.6155 -0.33312 24.8155 0.661553 29.8307C0.707371 30.0633 0.843691 30.2681 1.04053 30.4001C1.23736 30.5322 1.47859 30.5806 1.71114 30.5348C1.94369 30.489 2.14851 30.3527 2.28055 30.1558C2.41259 29.959 2.46103 29.7178 2.41521 29.4852C1.67683 25.7727 1.86588 21.9353 2.96562 18.3133C4.06535 14.6913 6.04178 11.3966 8.71967 8.72135Z" fill="black"/>
<path d="M25.8923 24.6597V20.2511C25.8877 20.0172 25.7916 19.7944 25.6245 19.6306C25.4575 19.4668 25.2328 19.375 24.9988 19.375C24.7649 19.375 24.5402 19.4668 24.3732 19.6306C24.2061 19.7944 24.11 20.0173 24.1055 20.2512V25C24.1053 25.219 24.1858 25.4305 24.3314 25.5941L30.1203 32.0905C30.2793 32.2621 30.4993 32.3645 30.7329 32.3757C30.9666 32.3869 31.1954 32.3061 31.3701 32.1505C31.5448 31.995 31.6516 31.7771 31.6675 31.5437C31.6834 31.3103 31.6071 31.08 31.4551 30.9021L25.8923 24.6597Z" fill="#F48034"/>
</g>
<defs>
<clipPath id="clip0_921_2581">
<rect width="50" height="50" fill="white"/>
</clipPath>
</defs>
</svg>
