<svg width="50" height="50" viewBox="0 0 50 50" fill="none" xmlns="http://www.w3.org/2000/svg">
<g clip-path="url(#clip0_921_2591)">
<path d="M28.5913 40.3074C31.4214 39.6674 34.0161 38.249 36.0826 36.2123C38.1492 34.1756 39.6051 31.6017 40.2862 28.7812C40.337 28.5736 40.3033 28.3542 40.1925 28.1714C40.0816 27.9885 39.9027 27.8572 39.695 27.8064C39.4873 27.7555 39.2679 27.7892 39.0851 27.9C38.9023 28.0109 38.771 28.1899 38.7201 28.3975C38.1111 30.8985 36.8263 33.1838 35.0061 35.0039C33.1859 36.8239 30.9004 38.1085 28.3995 38.7173C28.2107 38.767 28.0462 38.8834 27.9365 39.0449C27.8269 39.2064 27.7793 39.4021 27.8027 39.5959C27.8261 39.7898 27.9188 39.9686 28.0638 40.0993C28.2087 40.2301 28.3961 40.304 28.5913 40.3074Z" fill="black"/>
<path d="M21.6161 38.717C19.1153 38.108 16.83 36.8233 15.01 35.0033C13.1899 33.1833 11.9053 30.898 11.2963 28.3972C11.2453 28.1895 11.1139 28.0106 10.931 27.8998C10.7481 27.7891 10.5287 27.7555 10.321 27.8065C10.1134 27.8575 9.93445 27.9889 9.82367 28.1718C9.71289 28.3547 9.6793 28.5741 9.7303 28.7818C10.409 31.569 11.8409 34.1161 13.8694 36.1444C15.898 38.1728 18.4451 39.6045 21.2324 40.283C21.4401 40.3339 21.6594 40.3002 21.8423 40.1893C22.0251 40.0784 22.1564 39.8995 22.2073 39.6918C22.2581 39.4841 22.2244 39.2648 22.1136 39.082C22.0027 38.8991 21.8238 38.7678 21.6161 38.717Z" fill="black"/>
<path d="M21.2323 9.73019C18.445 10.4089 15.8978 11.8408 13.8693 13.8693C11.8408 15.8978 10.4089 18.445 9.73019 21.2323C9.67931 21.44 9.71301 21.6593 9.82388 21.8422C9.93474 22.025 10.1137 22.1563 10.3214 22.2072C10.529 22.258 10.7484 22.2243 10.9312 22.1135C11.1141 22.0026 11.2453 21.8237 11.2962 21.616C11.9053 19.1153 13.1901 16.83 15.0101 15.0101C16.83 13.1901 19.1153 11.9053 21.616 11.2962C21.8237 11.2453 22.0026 11.1141 22.1135 10.9312C22.2243 10.7484 22.258 10.529 22.2072 10.3214C22.1563 10.1137 22.025 9.93474 21.8422 9.82388C21.6593 9.71301 21.44 9.67931 21.2323 9.73019Z" fill="black"/>
<path d="M44.9885 27.7974C44.7781 27.7604 44.5616 27.8082 44.3862 27.9302C44.2109 28.0522 44.0909 28.2386 44.0524 28.4488C43.3474 32.3275 41.476 35.8988 38.688 38.686C35.9 41.4732 32.3281 43.3436 28.4492 44.0475C28.2534 44.0859 28.0787 44.1953 27.9589 44.3549C27.839 44.5144 27.7824 44.7126 27.8 44.9113C27.8177 45.1101 27.9082 45.2953 28.0543 45.4312C28.2004 45.5671 28.3916 45.6442 28.5911 45.6475C32.8229 44.9146 36.7273 42.899 39.7757 39.8737C42.8242 36.8484 44.8694 32.9595 45.6345 28.7334C45.6537 28.6295 45.6522 28.5228 45.6301 28.4195C45.608 28.3162 45.5658 28.2183 45.5058 28.1313C45.4457 28.0444 45.3692 27.9701 45.2804 27.9128C45.1916 27.8555 45.0924 27.8163 44.9885 27.7974Z" fill="black"/>
<path d="M5.03162 22.2166C5.1359 22.2357 5.24294 22.234 5.34655 22.2116C5.45017 22.1892 5.54832 22.1464 5.63534 22.0859C5.72236 22.0253 5.79653 21.9481 5.85357 21.8588C5.91061 21.7694 5.94939 21.6696 5.96767 21.5652C6.67252 17.6871 8.54334 14.1163 11.3304 11.3292C14.1176 8.54208 17.6884 6.67126 21.5664 5.96641C21.7768 5.92867 21.9636 5.80889 22.0857 5.63343C22.2078 5.45797 22.2551 5.2412 22.2174 5.03081C22.1796 4.82042 22.0599 4.63364 21.8844 4.51156C21.7089 4.38949 21.4922 4.34211 21.2818 4.37986C17.0798 5.14351 13.2107 7.17055 10.1908 10.1905C7.17092 13.2104 5.14388 17.0795 4.38023 21.2814C4.36121 21.3856 4.36301 21.4926 4.38551 21.5961C4.408 21.6996 4.45075 21.7976 4.5113 21.8846C4.57185 21.9715 4.64899 22.0456 4.73829 22.1026C4.82759 22.1595 4.92728 22.1983 5.03162 22.2166Z" fill="black"/>
<path d="M21.5661 44.046C17.688 43.3413 14.1171 41.4705 11.3299 38.6834C8.5428 35.8963 6.67203 32.3254 5.9673 28.4473C5.94861 28.343 5.90957 28.2435 5.85242 28.1544C5.79526 28.0652 5.7211 27.9882 5.63418 27.9277C5.54726 27.8672 5.44928 27.8244 5.34583 27.8018C5.24238 27.7792 5.13548 27.7772 5.03125 27.7959C4.82074 27.8336 4.63385 27.9534 4.51169 28.129C4.38953 28.3045 4.3421 28.5214 4.37985 28.7319C5.14355 32.9338 7.17062 36.8027 10.1905 39.8225C13.2104 42.8422 17.0795 44.8691 21.2814 45.6326C21.4918 45.6703 21.7086 45.623 21.884 45.5009C22.0595 45.3788 22.1793 45.192 22.217 44.9816C22.2548 44.7712 22.2074 44.5545 22.0853 44.379C21.9632 44.2036 21.7765 44.0838 21.5661 44.046Z" fill="black"/>
<path d="M25.0086 13.7201C25.2216 13.7201 25.4258 13.6355 25.5764 13.4849C25.727 13.3343 25.8117 13.13 25.8117 12.917V0.817936C25.8117 0.604114 25.7267 0.399049 25.5755 0.247854C25.4243 0.0966591 25.2193 0.0117187 25.0054 0.0117188C24.7916 0.0117187 24.5866 0.0966591 24.4354 0.247854C24.2842 0.399049 24.1992 0.604114 24.1992 0.817936V12.9143C24.1989 13.0205 24.2196 13.1258 24.2602 13.2239C24.3008 13.3221 24.3604 13.4112 24.4357 13.4861C24.511 13.5611 24.6004 13.6203 24.6987 13.6605C24.797 13.7007 24.9023 13.7209 25.0086 13.7201Z" fill="black"/>
<path d="M13.721 25.0082C13.721 24.7952 13.6364 24.5909 13.4858 24.4403C13.3351 24.2897 13.1309 24.2051 12.9179 24.2051H0.817936C0.604114 24.2051 0.399049 24.29 0.247854 24.4412C0.0966591 24.5924 0.0117188 24.7975 0.0117188 25.0113C0.0117188 25.2251 0.0966591 25.4302 0.247854 25.5814C0.399049 25.7326 0.604114 25.8175 0.817936 25.8175H12.9143C13.0206 25.818 13.1259 25.7974 13.2242 25.7568C13.3225 25.7163 13.4117 25.6566 13.4867 25.5814C13.5618 25.5061 13.6211 25.4166 13.6613 25.3183C13.7015 25.2199 13.7218 25.1145 13.721 25.0082Z" fill="black"/>
<path d="M25.0062 36.2949C24.7932 36.2949 24.589 36.3796 24.4383 36.5302C24.2877 36.6808 24.2031 36.885 24.2031 37.098V49.1944C24.2031 49.4082 24.2881 49.6133 24.4393 49.7645C24.5905 49.9157 24.7955 50.0006 25.0093 50.0006C25.2232 50.0006 25.4282 49.9157 25.5794 49.7645C25.7306 49.6133 25.8156 49.4082 25.8156 49.1944V37.1007C25.8159 36.9945 25.7952 36.8893 25.7546 36.7911C25.714 36.693 25.6544 36.6038 25.5791 36.5289C25.5038 36.4539 25.4144 36.3947 25.3161 36.3545C25.2178 36.3144 25.1124 36.2941 25.0062 36.2949Z" fill="black"/>
<path d="M49.1929 24.2012H37.0992C36.8854 24.2012 36.6803 24.2861 36.5291 24.4373C36.3779 24.5885 36.293 24.7936 36.293 25.0074C36.293 25.2212 36.3779 25.4263 36.5291 25.5775C36.6803 25.7287 36.8854 25.8136 37.0992 25.8136H49.1929C49.4067 25.8136 49.6118 25.7287 49.763 25.5775C49.9142 25.4263 49.9991 25.2212 49.9991 25.0074C49.9991 24.7936 49.9142 24.5885 49.763 24.4373C49.6118 24.2861 49.4067 24.2012 49.1929 24.2012Z" fill="black"/>
<path d="M30.4093 18.5565C25.0884 13.9744 16.522 17.9202 16.5863 25.008C16.5891 27.2404 17.4773 29.3805 19.0559 30.959C20.6345 32.5375 22.7748 33.4254 25.0072 33.428C32.0405 33.486 35.9998 25.0571 31.5399 19.7049L38.7338 12.5118H43.4703C43.5761 12.5119 43.6809 12.491 43.7786 12.4504C43.8763 12.4098 43.965 12.3503 44.0396 12.2754L49.7407 6.57519C49.851 6.46153 49.9256 6.31807 49.9554 6.1625C49.9851 6.00693 49.9686 5.84606 49.908 5.69974C49.8473 5.55342 49.7452 5.42805 49.6141 5.33911C49.4831 5.25016 49.3289 5.20153 49.1705 5.19922H44.907V0.937465C44.9038 0.779476 44.8546 0.625851 44.7653 0.495463C44.676 0.365075 44.5506 0.263603 44.4044 0.203513C44.2583 0.143423 44.0978 0.127331 43.9426 0.157215C43.7874 0.187099 43.6444 0.261658 43.531 0.37173L37.8299 6.07191C37.7548 6.14666 37.6953 6.23553 37.6547 6.33339C37.6141 6.43125 37.5933 6.53617 37.5935 6.64211V11.3759L30.4093 18.5565ZM31.8156 25.008C31.4953 34.0205 18.52 34.0205 18.1987 25.008C18.1175 19.3685 24.9715 16.1213 29.2636 19.7022L24.6163 24.3494C24.4652 24.5007 24.3804 24.7057 24.3805 24.9195C24.3806 25.1333 24.4656 25.3383 24.6168 25.4894C24.768 25.6405 24.9731 25.7253 25.1869 25.7253C25.4006 25.7252 25.6056 25.6402 25.7567 25.4889L30.3897 20.8551C31.3137 22.0423 31.8154 23.5036 31.8156 25.008ZM39.2059 6.97495L43.2918 2.88452V6.00767C43.2918 6.22066 43.3765 6.42493 43.5271 6.57554C43.6777 6.72615 43.882 6.81076 44.0949 6.81076H47.2181L43.1339 10.9012H39.2077L39.2059 6.97495Z" fill="#F48034"/>
</g>
<defs>
<clipPath id="clip0_921_2591">
<rect width="50" height="50" fill="white"/>
</clipPath>
</defs>
</svg>
